<svg xmlns="http://www.w3.org/2000/svg" xmlns:xlink="http://www.w3.org/1999/xlink" version="1.1" x="0px" y="0px" viewBox="-17.5 -17.5 100 125" enable-background="new -17.5 -17.5 100 100" xml:space="preserve"><path d="M13.817,46.329c-7.625,0-13.829-6.204-13.829-13.829s6.204-13.828,13.829-13.828v-4.105  c-9.889,0-17.934,8.045-17.934,17.934s8.045,17.935,17.935,17.935c9.888,0,17.932-8.046,17.932-17.935  c0-0.002,0.001-0.004,0.001-0.006c0.003-10.713,8.718-19.427,19.431-19.427c10.717,0,19.436,8.718,19.436,19.434  s-8.718,19.434-19.435,19.435v4.104c12.979,0,23.538-10.56,23.538-23.539S64.161,8.961,51.182,8.961  c-12.979,0-23.537,10.56-23.537,23.539c0,0.002-0.001,0.004-0.001,0.006C27.64,40.129,21.438,46.329,13.817,46.329z"/><path d="M51.182,18.671c7.626,0,13.83,6.204,13.83,13.829c0,7.625-6.203,13.828-13.829,13.829v4.105  c9.89-0.001,17.935-8.046,17.935-17.935s-8.046-17.934-17.936-17.934c-9.888,0-17.932,8.045-17.932,17.934  c0,0.002-0.001,0.004-0.001,0.006c-0.004,10.712-8.719,19.428-19.432,19.428c-10.716,0-19.435-8.719-19.435-19.435  s8.718-19.434,19.434-19.434V8.961C0.838,8.961-9.722,19.521-9.722,32.5s10.56,23.539,23.539,23.539  c12.979,0,23.538-10.56,23.538-23.539C37.355,24.875,43.558,18.671,51.182,18.671z"/><path d="M80.328,32.5c0-16.07-13.074-29.145-29.145-29.145S22.039,16.43,22.039,32.5c0,4.534-3.688,8.224-8.222,8.224  c-4.535,0-8.224-3.689-8.224-8.224c0-4.535,3.689-8.224,8.223-8.224v-4.104c-6.798,0-12.329,5.53-12.329,12.328  s5.531,12.329,12.329,12.329c6.797,0,12.326-5.531,12.326-12.329c0-0.002,0.001-0.003,0.001-0.005  C26.147,18.69,37.378,7.461,51.182,7.461c13.807,0,25.039,11.232,25.039,25.039S64.989,57.539,51.183,57.539v4.105h0.001  C67.254,61.645,80.328,48.57,80.328,32.5z"/><path d="M51.182,24.276c4.535,0,8.225,3.689,8.225,8.224c0,4.534-3.688,8.223-8.224,8.224v4.105  c6.799-0.001,12.329-5.531,12.329-12.329c0-6.798-5.531-12.329-12.33-12.329c-6.797,0-12.326,5.531-12.326,12.329  c0,13.807-11.232,25.039-25.038,25.039c-13.807,0-25.039-11.232-25.039-25.039S0.011,7.461,13.817,7.461V3.355h0  c-16.07,0-29.145,13.074-29.145,29.145s13.074,29.145,29.145,29.145S42.961,48.57,42.961,32.5  C42.961,27.965,46.648,24.276,51.182,24.276z"/></svg>